<?xml version="1.0" standalone="no"?>
<!DOCTYPE svg PUBLIC "-//W3C//DTD SVG 1.0//EN" "http://www.w3.org/TR/2001/REC-SVG-20010904/DTD/svg10.dtd">
<svg xmlns="http://www.w3.org/2000/svg" xmlns:xlink="http://www.w3.org/1999/xlink" id="body_1" width="256" height="120">

<g transform="matrix(0.15615726 0 0 0.15615726 -0 74.08887)">
    <path d="M1607.741 101.632L1637.294 52.625004L1620.9 0L494.142 0L488.868 38.4L478.426 0L215.833 0L206.78899 36.157L184.95898 36.157L179.78198 56.157L150.794 0L65.22 0L0 209.344L51.97 280.628L137.435 280.628L147.89099 241.07799L182.409 241.07799L205.556 280.628L469.362 280.628L475.645 234.758L490.245 280.628L1371.6111 280.628L1407.2911 206.68399L1439.5581 206.68399L1469.5281 148.03L1501.5281 280.63L1590.253 280.63L1639.3721 209.23001L1607.741 101.632zM846.208 151.295L846.317 126.307L922.124 126.307L922.892 151.295z" stroke="none" fill="#000000" fill-rule="nonzero" />
    <path d="M59.37 266.076L16.071 206.686L85.96 206.686L125.597 266.077L59.37 266.076L59.37 266.076" stroke="none" fill="#3D3938" fill-rule="nonzero" />
    <path d="M342.207 206.686L272.321 206.686L302.204 266.077L368.431 266.077L342.207 206.686L342.207 206.686" stroke="none" fill="#3D3938" fill-rule="nonzero" />
    <path d="M365.503 206.686L390.507 266.077L456.735 266.077L435.389 206.686L365.503 206.686L365.503 206.686" stroke="none" fill="#3D3938" fill-rule="nonzero" />
    <path d="M575.162 206.686L589.189 266.077L743.72 266.077L738.23 206.686L575.162 206.686L575.162 206.686" stroke="none" fill="#3D3938" fill-rule="nonzero" />
    <path d="M924.595 206.686L920.327 266.077L765.796 266.077L761.525 206.686L924.595 206.686L924.595 206.686" stroke="none" fill="#3D3938" fill-rule="nonzero" />
    <path d="M947.89 206.686L1017.774 206.686L1008.63 266.077L942.403 266.077L947.89 206.686L947.89 206.686" stroke="none" fill="#3D3938" fill-rule="nonzero" />
    <path d="M1041.071 206.686L1030.706 266.077L1096.933 266.077L1110.957 206.686L1041.071 206.686L1041.071 206.686" stroke="none" fill="#3D3938" fill-rule="nonzero" />
    <path d="M1134.252 206.686L1119.009 266.076L1185.237 266.077L1204.139 206.686L1134.252 206.686L1134.252 206.686" stroke="none" fill="#3D3938" fill-rule="nonzero" />
    <path d="M1227.434 206.686L1207.312 266.077L1273.54 266.077L1297.32 206.686L1227.434 206.686L1227.434 206.686" stroke="none" fill="#3D3938" fill-rule="nonzero" />
    <path d="M1320.615 206.686L1295.616 266.077L1361.843 266.077L1390.503 206.686L1320.615 206.686L1320.615 206.686" stroke="none" fill="#3D3938" fill-rule="nonzero" />
    <path d="M1553.57 206.686L1516.374 266.077L1582.601 266.077L1623.457 206.686L1553.57 206.686L1553.57 206.686" stroke="none" fill="#3D3938" fill-rule="nonzero" />
    <path d="M481.98 206.686L500.886 266.077L567.114 266.077L551.866 206.686L481.98 206.686L481.98 206.686" stroke="none" fill="#3D3938" fill-rule="nonzero" />
    <path d="M179.141 206.686L249.029 206.686L280.128 266.077L213.9 266.077L179.141 206.686L179.141 206.686" stroke="none" fill="#3D3938" fill-rule="nonzero" />
    <path d="M199.243 126.307L176.653 126.307L166.416 165.847L120.542 165.847L131.472 126.307L108.882 126.307L85.957 206.685L16.071 206.685L75.928 14.553L140.75601 14.553L130.444 50.71L152.37 50.71L142.077 87.945L186.584 87.945L196.224 50.71L218.15 50.71L227.194 14.552998L292.025 14.552998L249.025 206.685L179.141 206.685L199.243 126.307z" stroke="none" fill="#D0C5C0" fill-rule="nonzero" />
    <path d="M313.631 14.553L378.459 14.553L342.207 206.685L272.321 206.685L313.631 14.553z" stroke="none" fill="#D0C5C0" fill-rule="nonzero" />
    <path d="M594.552 14.553L745.818 14.553L744.39 50.71L656.683 50.71L653.906 87.945L742.919 87.945L741.4 126.307L651.04004 126.307L648.09 165.847L739.83905 165.847L738.2261 206.685L575.161 206.685L594.552 14.553z" stroke="none" fill="#D0C5C0" fill-rule="nonzero" />
    <path d="M767.427 14.553L918.692 14.553L919.8 50.71L832.1 50.71L831.6 165.847L923.347 165.847L924.601 206.685L761.525 206.685L767.427 14.553z" stroke="none" fill="#D0C5C0" fill-rule="nonzero" />
    <path d="M1035.075 126.307L1012.48395 126.307L1017.7739 206.685L947.89 206.685L940.3 14.552L1091.565 14.552L1098.9719 87.944L1076.72 87.944L1078.475 106.981L1100.895 106.981L1110.957 206.681L1041.071 206.681L1035.075 126.307zM1007.509 50.707L1009.959 87.942L1032.214 87.942L1029.436 50.707z" stroke="none" fill="#D0C5C0" fill-rule="nonzero" />
    <path d="M1286.051 14.553L1437.316 14.553L1446.042 50.710003L1358.335 50.710003L1366.0139 87.94501L1455.028 87.94501L1464.286 126.30701L1373.926 126.30701L1390.503 206.685L1320.615 206.685L1286.051 14.553z" stroke="none" fill="#D0C5C0" fill-rule="nonzero" />
    <path d="M1511.822 50.71L1467.969 50.71L1458.925 14.552998L1610.19 14.552998L1621.455 50.71L1577.6 50.71L1623.4559 206.685L1553.569 206.685L1511.822 50.71z" stroke="none" fill="#D0C5C0" fill-rule="nonzero" />
    <path d="M490.245 145.926L467.482 145.926L473.122 106.981995L450.7 106.981995L435.388 206.68199L365.5 206.68199L400.068 14.553L464.9 14.553L459.343 50.71L481.27 50.71L475.878 87.945L498.132 87.945L508.115 14.553001L572.943 14.553001L551.866 206.685L481.98 206.685L490.245 145.926z" stroke="none" fill="#D0C5C0" fill-rule="nonzero" />
    <path d="M1264.441 14.553L1113.176 14.553L1134.253 206.685L1204.139 206.685L1195.874 145.926L1218.637 145.926L1227.437 206.685L1297.323 206.685L1264.441 14.553zM1213.49 84.8L1224.6 84.8L1229.8779 119.83301L1214.856 119.83301L1213 106.982L1190.58 106.982L1192.3269 119.833L1177.3 119.833L1172.74 84.8L1183.853 84.8L1182.5901 75.411L1156.7561 75.411L1153.6841 50.711002L1182.92 50.711002L1185.857 72.298004L1207.973 72.298004L1204.847 50.711006L1234.082 50.711006L1237.948 75.41101L1212.114 75.41101z" stroke="none" fill="#D0C5C0" fill-rule="nonzero" />
</g>
</svg>